<svg width="253" height="254" viewBox="0 0 253 254" fill="none" xmlns="http://www.w3.org/2000/svg">
<path d="M49.8613 0.184451C58.3663 0.074176 67.1478 0.217476 75.6883 0.221326C107.884 0.375076 140.08 0.334825 172.275 0.0999746C179.873 0.0177246 187.472 -0.0135252 195.071 0.00619978C205.211 0.0163748 214.676 -0.381899 224.179 3.78683C242.844 11.9763 252.331 28.4848 252.336 48.5583C252.344 85.2453 252.326 121.906 252.341 158.578L252.356 190.767C252.374 208.656 253.331 224.44 239.519 238.378C228.756 249.238 217.249 252.715 202.191 252.84L91.3686 252.89L59.1146 253.013C52.9001 253.01 44.0403 253.258 38.1436 252.15C28.9103 250.463 20.3603 246.148 13.5201 239.72C4.71335 231.305 0.145095 219.882 0.0790953 207.826C0.00384534 194.104 0.0783462 180.351 0.0948462 166.629L0.0710959 95.1146L0.050344 60.9961C0.039844 54.4388 -0.281154 43.5531 0.841096 37.5413C2.5551 28.6838 6.78759 20.5088 13.0316 13.9966C20.4676 6.29508 31.2058 1.33907 41.8671 0.476825C44.5091 0.26315 47.2088 0.235826 49.8613 0.184451Z" fill="#031937"/>
<path d="M162.6 5.94544C169.686 5.81794 176.772 5.74194 183.859 5.71744C202.196 5.63169 220.151 3.71469 234.251 17.7512C239.886 23.3357 243.739 30.4674 245.319 38.2429C246.561 44.2869 246.274 52.6444 246.274 58.9952L246.219 85.6894L246.541 172.468C246.599 180.065 246.554 187.662 246.406 195.257C246.249 211.326 246.439 222.932 234.054 235.103C221.984 246.968 209.884 247.11 194.279 247.185C185.736 247.245 177.192 247.238 168.648 247.16L91.2386 247.253L62.3893 247.308C55.4546 247.278 48.6933 247.328 41.8076 246.605C21.8816 244.518 5.76032 227.578 5.81007 207.337C5.83957 195.34 5.79157 183.326 5.79157 171.331L5.79457 97.4399L5.80657 62.0832C5.79382 56.6912 5.67432 51.2007 5.80932 45.8187C6.05157 36.1479 10.2103 25.8072 16.9018 18.8499C22.3221 13.1662 29.2888 9.19469 36.9411 7.42594C44.1591 5.81619 52.5236 6.06094 59.8863 6.07044L80.9508 6.08394C107.962 6.10319 135.661 6.44369 162.6 5.94544Z" fill="white"/>
<path d="M54.454 101.418C57.7823 100.496 61.1853 99.9645 64.0023 97.8093C75.259 89.1968 63.1473 63.2863 72.5493 48.4143C75.975 43.067 81.4033 39.3183 87.6173 38.0085C90.098 37.4665 97.3955 36.268 99.3853 37.5488C101.748 44.88 97.8868 43.2685 92.8708 44.4958C68.8528 50.3715 83.0505 77.5083 77.6378 93.7563C75.5735 99.9528 70.6353 102.858 65.118 105.429C95.8963 115.702 60.918 158.779 93.4725 165.875C95.2355 166.26 98.0895 166.208 99.4933 167.306C100.142 168.382 100.046 171.32 100.08 172.731C101.145 172.777 102.539 173.043 103.627 173.218C103.796 177.651 103.894 182.296 103.596 186.719C102.256 206.616 83.382 198.221 77.615 203.589C75.1615 205.872 75.6263 210.307 75.547 213.389C73.9845 213.105 70.7958 213.455 69.1375 213.594C67.7425 210.212 69.4573 203.606 71.4538 200.495C77.1255 191.656 87.587 197.536 94.1773 192.358C97.961 189.385 96.9215 177.963 96.8948 173.381C94.6188 173.312 92.3585 173.188 90.1075 172.829C85.1518 172.037 80.5623 170.132 76.7255 166.858C60.298 152.843 75.1325 127.209 66.3083 115.193C63.4803 111.342 58.9638 110.11 54.4783 109.435C54.3048 106.738 54.3593 104.114 54.454 101.418Z" fill="#031937"/>
<path d="M152.078 43.5031C151.766 41.2901 150.77 37.1126 154.203 36.9976C169.396 36.4911 181.617 45.1611 182.508 61.0266C182.752 65.3711 182.64 69.2576 182.506 73.6396C182.047 88.6968 179.492 98.1091 197.109 101.46C197.129 104.171 197.174 106.562 196.929 109.267C192.191 110.176 187.536 111.385 184.637 115.586C176.678 127.118 190.455 153.629 174.552 167.022C171.094 169.935 166.898 171.751 162.477 172.6C159.984 173.078 157.473 173.266 154.941 173.372C154.875 177.559 154.107 189.972 157.337 192.423C163.609 197.182 174.537 192.286 180.044 200.467C182.75 204.487 182.953 208.324 182.465 213.059C180.344 213.028 178.222 213.029 176.1 213.064C176.167 209.802 176.432 206.506 173.937 203.964C168.238 198.16 152.204 205.584 148.559 190.881C147.927 188.329 147.932 185.556 147.924 182.937C147.929 179.59 148.022 176.244 148.204 172.902C149.265 172.795 150.328 172.723 151.364 172.483C151.453 164.34 153.062 167.104 159.557 165.512C185.893 159.057 163.217 124.852 177.927 110.403C180.634 107.744 183.393 106.493 186.8 105.398C181.687 103.664 177.064 100.799 174.655 95.8041C167.492 80.9461 182.46 52.6206 161.449 45.4031C157.916 44.1891 154.972 44.3246 152.078 43.5031Z" fill="#031937"/>
<path d="M122.361 213.471C136.298 213.052 150.373 213.624 164.323 213.404C166.872 213.364 179.371 213.094 181.139 214.206C181.988 215.482 182.154 218.489 181.3 219.755C180.051 220.622 165.6 220.221 162.932 220.218L127.895 220.211H91.1058C84.8231 220.211 78.483 220.349 72.2007 220.198C71.6322 220.089 70.2413 220.243 69.8682 219.653C67.3352 215.651 69.9871 212.965 73.4489 213.52C74.1027 213.624 75.7183 213.555 76.3523 213.555L87.2271 213.543L122.361 213.471Z" fill="#10B981"/>
<path d="M121.945 230.193C139.212 229.77 156.65 230.348 173.933 230.125C177.091 230.085 192.576 229.813 194.766 230.935C195.819 232.223 196.024 235.258 194.966 236.535C193.419 237.41 175.515 237.005 172.21 237.003L128.801 236.995H83.2227C75.4389 236.995 67.5839 237.135 59.8007 236.983C59.0964 236.873 57.3732 237.028 56.9109 236.433C53.7727 232.393 57.0582 229.683 61.3472 230.243C62.1572 230.348 64.1587 230.278 64.9442 230.278L78.4172 230.265L121.945 230.193Z" fill="#10B981"/>
</svg>
